<svg class="marks" width="124" height="266" version="1.1" xmlns="http://www.w3.org/2000/svg" xmlns:xlink="http://www.w3.org/1999/xlink"><g transform="translate(54,12)"><g class="mark-group"><g transform="translate(0,0)"><rect class="background" width="1" height="1" style="fill: none;"></rect><g class="mark-group root"><g transform="translate(0,0)"><rect class="background" width="63" height="200" style="fill: none;"></rect><g class="mark-group"><g transform="translate(0,200)"><rect class="background" width="0" height="0" style="pointer-events: none; fill: none;"></rect><g class="mark-rule" style="pointer-events: none;"></g><g class="mark-rule" style="pointer-events: none;"><line transform="translate(16.5,0)" x2="0" y2="6" style="fill: none; stroke: #000; stroke-width: 1; opacity: 1;"></line><line transform="translate(47.5,0)" x2="0" y2="6" style="fill: none; stroke: #000; stroke-width: 1; opacity: 1;"></line></g><g class="mark-rule" style="pointer-events: none;"></g><g class="mark-text"><text text-anchor="end" transform="translate(16.5,9) rotate(270) translate(0,3)" style="font: 11px sans-serif; fill: #000; opacity: 1;">false</text><text text-anchor="end" transform="translate(47.5,9) rotate(270) translate(0,3)" style="font: 11px sans-serif; fill: #000; opacity: 1;">true</text></g><g class="mark-path" style="pointer-events: none;"><path transform="translate(0.5,0.5)" d="M0,6V0H63V6" style="fill: none; stroke: #000; stroke-width: 1;"></path></g><g class="mark-text"><text text-anchor="middle" transform="translate(31,46)" style="font: bold 11px sans-serif; fill: #000;">(state)</text></g></g></g><g class="mark-group"><g transform="translate(0,0)"><rect class="background" width="0" height="0" style="pointer-events: none; fill: none;"></rect><g class="mark-rule" style="pointer-events: none;"><line transform="translate(0,200.5)" x2="63" y2="0" style="fill: none; stroke: #000; stroke-opacity: 0.15; opacity: 1;"></line><line transform="translate(0,171.5)" x2="63" y2="0" style="fill: none; stroke: #000; stroke-opacity: 0.15; opacity: 1;"></line><line transform="translate(0,143.5)" x2="63" y2="0" style="fill: none; stroke: #000; stroke-opacity: 0.15; opacity: 1;"></line><line transform="translate(0,114.5)" x2="63" y2="0" style="fill: none; stroke: #000; stroke-opacity: 0.15; opacity: 1;"></line><line transform="translate(0,86.5)" x2="63" y2="0" style="fill: none; stroke: #000; stroke-opacity: 0.15; opacity: 1;"></line><line transform="translate(0,57.5)" x2="63" y2="0" style="fill: none; stroke: #000; stroke-opacity: 0.15; opacity: 1;"></line><line transform="translate(0,29.5)" x2="63" y2="0" style="fill: none; stroke: #000; stroke-opacity: 0.15; opacity: 1;"></line><line transform="translate(0,0.5)" x2="63" y2="0" style="fill: none; stroke: #000; stroke-opacity: 0.15; opacity: 1;"></line></g><g class="mark-rule" style="pointer-events: none;"><line transform="translate(-6,200.5)" x2="6" y2="0" style="fill: none; stroke: #000; stroke-width: 1; opacity: 1;"></line><line transform="translate(-6,171.5)" x2="6" y2="0" style="fill: none; stroke: #000; stroke-width: 1; opacity: 1;"></line><line transform="translate(-6,143.5)" x2="6" y2="0" style="fill: none; stroke: #000; stroke-width: 1; opacity: 1;"></line><line transform="translate(-6,114.5)" x2="6" y2="0" style="fill: none; stroke: #000; stroke-width: 1; opacity: 1;"></line><line transform="translate(-6,86.5)" x2="6" y2="0" style="fill: none; stroke: #000; stroke-width: 1; opacity: 1;"></line><line transform="translate(-6,57.5)" x2="6" y2="0" style="fill: none; stroke: #000; stroke-width: 1; opacity: 1;"></line><line transform="translate(-6,29.5)" x2="6" y2="0" style="fill: none; stroke: #000; stroke-width: 1; opacity: 1;"></line><line transform="translate(-6,0.5)" x2="6" y2="0" style="fill: none; stroke: #000; stroke-width: 1; opacity: 1;"></line></g><g class="mark-rule" style="pointer-events: none;"></g><g class="mark-text"><text text-anchor="end" transform="translate(-9,203.5)" style="font: 11px sans-serif; fill: #000; opacity: 1;">0.0</text><text text-anchor="end" transform="translate(-9,174.5)" style="font: 11px sans-serif; fill: #000; opacity: 1;">0.10</text><text text-anchor="end" transform="translate(-9,146.5)" style="font: 11px sans-serif; fill: #000; opacity: 1;">0.20</text><text text-anchor="end" transform="translate(-9,117.5)" style="font: 11px sans-serif; fill: #000; opacity: 1;">0.30</text><text text-anchor="end" transform="translate(-9,89.5)" style="font: 11px sans-serif; fill: #000; opacity: 1;">0.40</text><text text-anchor="end" transform="translate(-9,60.5)" style="font: 11px sans-serif; fill: #000; opacity: 1;">0.50</text><text text-anchor="end" transform="translate(-9,32.5)" style="font: 11px sans-serif; fill: #000; opacity: 1;">0.60</text><text text-anchor="end" transform="translate(-9,3.5)" style="font: 11px sans-serif; fill: #000; opacity: 1;">0.70</text></g><g class="mark-path" style="pointer-events: none;"><path transform="translate(0.5,0.5)" d="M-6,0H0V200H-6" style="fill: none; stroke: #000; stroke-width: 1;"></path></g><g class="mark-text"><text text-anchor="middle" transform="translate(-42,100) rotate(-90) translate(0,3)" style="font: bold 11px sans-serif; fill: #000;">frequency</text></g></g></g><g class="mark-rect marks"><rect transform="translate(6,113)" width="20" height="87" style="fill: #4682b4;"></rect><rect transform="translate(37,1)" width="20" height="199" style="fill: #4682b4;"></rect></g></g></g></g></g></g></svg>